<svg xmlns="http://www.w3.org/2000/svg" viewBox="0 0 512 512"><path d="M256 2.6C116 2.6 2.6 116 2.6 256S116 509.4 256 509.4 509.4 396 509.4 256 396 2.6 256 2.6zM242.6 107h26.8c10.8 0 19.6 9 19.6 19.7v11.6c9.3 2.8 18.2 6.6 26.5 11.5l8.6-8.5c7.8-7.7 20-7.7 27.8 0l19 19c7.6 7.6 7.6 20 0 27.6l-10 9.7c4.2 8 7.3 16.6 9.4 25.3h15c11 0 19.7 8.8 19.7 19.6v26.8c0 10.8-9 19.6-19.7 19.6h-17.8c-2.5 7.6-6 15-10 22l13.2 13c7.7 7.8 7.7 20 0 27.8l-19 19c-7.6 7.6-20 7.6-27.6 0l-14.4-14.5c-6.6 3.3-13.5 6-20.6 8v21c0 10.8-8.8 19.6-19.6 19.6h-26.8c-10.8 0-19.6-9-19.6-19.7v-21c-7-2-14-4.7-20.6-8L188 370.6c-7.8 7.7-20 7.7-27.8 0l-19-19c-7.6-7.6-7.6-20 0-27.6l13.3-13c-4-7-7.4-14.4-10-22h-17.8c-10.8 0-19.6-8.8-19.6-19.6v-26.8c0-10.8 9-19.6 19.7-19.6h15c2.2-8.7 5.4-17.2 9.5-25.2l-10-10c-7.6-7.6-7.6-20 0-27.6l19-19c7.7-7.6 20-7.6 27.7 0l8.5 8.7c8.3-5 17.2-9 26.5-11.7v-11.6c0-10.8 8.8-19.6 19.6-19.6zm13.4 79.7c-35.7 0-64.7 29-64.7 64.7s29 64.7 64.7 64.7 64.7-29 64.7-64.6c0-35.8-29-64.7-64.7-64.7z" fill="#ccc"/></svg>