<?xml version="1.0" encoding="UTF-8" standalone="no"?>
<!-- Created with Inkscape (http://www.inkscape.org/) -->

<svg
   xmlns:dc="http://purl.org/dc/elements/1.1/"
   xmlns:cc="http://creativecommons.org/ns#"
   xmlns:rdf="http://www.w3.org/1999/02/22-rdf-syntax-ns#"
   xmlns:svg="http://www.w3.org/2000/svg"
   xmlns="http://www.w3.org/2000/svg"
   xmlns:sodipodi="http://sodipodi.sourceforge.net/DTD/sodipodi-0.dtd"
   xmlns:inkscape="http://www.inkscape.org/namespaces/inkscape"
   width="50"
   height="50"
   viewBox="0 0 49.999997 50.000001"
   id="svg2"
   version="1.1"
   inkscape:version="0.91 r13725"
   sodipodi:docname="search.svg">
  <defs
     id="defs4">
    <inkscape:perspective
       sodipodi:type="inkscape:persp3d"
       inkscape:vp_x="0 : 25 : 1"
       inkscape:vp_y="0 : 1000 : 0"
       inkscape:vp_z="49.999997 : 25 : 1"
       inkscape:persp3d-origin="24.999999 : 16.666667 : 1"
       id="perspective3349" />
  </defs>
  <sodipodi:namedview
     id="base"
     pagecolor="#ffffff"
     bordercolor="#666666"
     borderopacity="1.0"
     inkscape:pageopacity="0.0"
     inkscape:pageshadow="2"
     inkscape:zoom="7.9195959"
     inkscape:cx="9.9690158"
     inkscape:cy="28.301471"
     inkscape:document-units="px"
     inkscape:current-layer="layer1"
     showgrid="false"
     units="px"
     inkscape:window-width="1366"
     inkscape:window-height="768"
     inkscape:window-x="0"
     inkscape:window-y="0"
     inkscape:window-maximized="1" />
  <metadata
     id="metadata7">
    <rdf:RDF>
      <cc:Work
         rdf:about="">
        <dc:format>image/svg+xml</dc:format>
        <dc:type
           rdf:resource="http://purl.org/dc/dcmitype/StillImage" />
        <dc:title></dc:title>
      </cc:Work>
    </rdf:RDF>
  </metadata>
  <g
     inkscape:label="Layer 1"
     inkscape:groupmode="layer"
     id="layer1"
     transform="translate(0,-1002.3621)">
    <path
       style="fill:#ffffff"
       d="m 36.604068,1042.2901 c -0.347244,-0.073 -0.793068,-0.2769 -1.090854,-0.4999 -0.411348,-0.3079 -7.559196,-6.8712 -7.547694,-6.9304 0.0063,-0.032 0.189654,-0.1867 0.407413,-0.3427 1.355357,-0.9708 3.087947,-2.6782 3.969827,-3.9119 0.122892,-0.1718 0.244938,-0.3125 0.271218,-0.3125 0.04176,0 6.102474,6.7234 6.70596,7.4392 0.419658,0.4979 0.681804,1.208 0.680052,1.8426 -0.003,1.0213 -0.624894,2.0127 -1.54956,2.4691 -0.617028,0.3045 -1.198764,0.3822 -1.846362,0.2465 z m -16.212209,-7.4582 c -0.06877,-0.01 -0.303198,-0.037 -0.520955,-0.062 -1.899769,-0.2137 -3.782965,-0.9772 -5.415025,-2.1955 -0.63477,-0.4738 -1.70943,-1.5495 -2.186142,-2.188 -1.565178,-2.0966 -2.3574058,-4.6036 -2.262036,-7.1581 0.110286,-2.9538 1.309194,-5.6589 3.408612,-7.691 1.731648,-1.6761 3.790158,-2.6912 6.225366,-3.0698 0.839005,-0.1303 2.370096,-0.1303 3.2091,0 2.447568,0.3805 4.504194,1.3983 6.245124,3.0905 1.774794,1.7251 2.896649,3.9203 3.283937,6.4261 0.122976,0.7956 0.1338,2.3358 0.02177,3.0988 -0.378805,2.5796 -1.415347,4.664 -3.213577,6.4623 -1.767281,1.7673 -3.820877,2.8085 -6.295589,3.1917 -0.5154,0.08 -2.159292,0.1423 -2.500596,0.095 z m 1.677486,-2.8323 c 0.75744,-0.053 1.905342,-0.3622 2.692205,-0.7244 2.312383,-1.0644 4.072788,-3.1878 4.667124,-5.6294 0.172423,-0.7083 0.236233,-1.26 0.236233,-2.0423 0,-1.5989 -0.37074,-2.9548 -1.181683,-4.3217 -1.183097,-1.9943 -3.230681,-3.46 -5.486579,-3.9274 -0.61608,-0.1276 -1.048044,-0.1695 -1.750416,-0.1695 -0.702372,0 -1.134335,0.043 -1.750416,0.1695 -2.479938,0.5139 -4.645074,2.1907 -5.788632,4.4832 -0.614652,1.2321 -0.87963,2.366 -0.87963,3.7637 0,1.1714 0.179988,2.1168 0.601806,3.1616 1.063176,2.6332 3.374412,4.5472 6.177426,5.1159 0.798888,0.1621 1.43313,0.1932 2.462562,0.1208 z"
       id="path3347"
       inkscape:connector-curvature="0" />
  </g>
</svg>
