<svg xmlns="http://www.w3.org/2000/svg" width="50" height="50"><path fill="#fff" d="M43.6 49c-.5 0-1.3-.5-1.6-1-.8-.5-12.2-11-12.2-11.2l.6-.3c2-1.6 4.8-4.3 6.4-6.4l.4-.4L48 41.4c.5.8 1 2 1 3 0 1.5-1 3-2.4 4-1 .4-2 .6-3.2.2zm-26-12H17c-3.2-.5-6.4-1.6-8.8-3.7-1-.8-3-2.4-3.5-3.5C2 26.6 1 22.4 1 18.6 1 13.8 3 9.3 6.5 6c2.7-2.6 6-4.2 10-4.7 1.5-.3 3.7-.3 5 0 3.8.5 7.2 2 9.7 4.8 3.2 2.8 4.8 6.5 5.5 10.3V21c-.7 4.4-2.3 7.8-5 10.7-3 3-6.2 4.5-10.2 5h-4.2zm2.8-4.8c1.2 0 3.2-.4 4.4-1 3.7-2 6.4-5.3 7.4-9 .3-1.2.5-2.2.5-3.3 0-2.8-.7-5-2-7.2-2-3.2-5-5.6-8.7-6.4L19 5c-1 0-1.5 0-2.6.4C12.4 6.2 9 9 7 12.6c-1 2-1.5 3.7-1.5 6 0 2 .5 3.5 1 5 1.7 4.2 5.6 7.3 10 8 1.3.6 2.3.6 4 .4z"/></svg>